{"title":"On The Inside 2011 DvDRiP XviD AC3 - VISUALiSE","uid":6805526,"size":1230544683,"categoryP":"video","categoryS":"movies","magnet":"?xt=urn:btih:46ce50da9cdbc7b757b5a0b451565d4202f8840e&amp;dn=On+The+Inside+2011+DvDRiP+XviD+AC3+-+VISUALiSE&amp;tr=udp%3A%2F%2Ftracker.openbittorrent.com%3A80&amp;tr=udp%3A%2F%2Fopen.demonii.com%3A1337&amp;tr=udp%3A%2F%2Ftracker.coppersurfer.tk%3A6969&amp;tr=udp%3A%2F%2Fexodus.desync.com%3A6969","seeders":3,"leechers":1,"uploader":"LegendET","files":3,"time":1320849111,"description":"\n[code]\noooooo     oooo  o8o   .oooooo..o ooooo     ooo       .o.       ooooo         o8o   .oooooo..o oooooooooooo\n`888.     .8'   `&quot;'  d8P'    `Y8 `888'     `8'      .888.      `888'         `&quot;'  d8P'    `Y8 `888'     `8\n`888.   .8'   oooo  Y88bo.       888       8      .8&quot;888.      888         oooo  Y88bo.       888        \n `888. .8'    `888   `&quot;Y8888o.   888       8     .8' `888.     888         `888   `&quot;Y8888o.   888oooo8    \n  `888.8'      888       `&quot;Y88b  888       8    .88ooo8888.    888          888       `&quot;Y88b  888    &quot;    \n   `888'       888  oo     .d8P  `88.    .8'   .8'     `888.   888       o  888  oo     .d8P  888       o\n    `8'       o888o 8&quot;&quot;88888P'     `YbodP'    o88o     o8888o o888ooooood8 o888o 8&quot;&quot;88888P'  o888ooooood8\n[/code]\n\n\n\nTitle: On The Inside 2011 DvDRiP XviD AC3 - VISUALiSE\nFormat: Xvid\nLanguage: English\nSubtitles: No\nImdb: http://www.imdb.com/title/tt1260365/\n\nPlot:\nA decent but troubled young man is sent to a psychiatric \ninstitution for the criminally insane and soon finds himself \nin a fight for his life battling ghosts inside his head \nand very real enemies all around him.\n\nSources:\nVideo: DIDyourSISTER - Many Thanks \nAudio: DIDyourSISTER - Many Thanks \n\nRelease Notes:\nVISUALiSE Bringing you...............\nOn The Inside 2011 DvDRiP XviD AC3 - VISUALiSE\nFirst off thanks to DIDyoursISTER  for bringing \nus this and letting us do your sister to second's\nwas mighty sloppy  \n\nDone our normal thing on this ran some filters and\na little sharpen then muxed the AC3 audio back \nto our encode  \n\nenjoy. \n\nInfo:\nVideo\nID                               : 0\nFormat                           : MPEG-4 Visual\nFormat profile                   : Advanced Simple@L5\nFormat settings, BVOP            : 2\nFormat settings, QPel            : No\nFormat settings, GMC             : No warppoints\nFormat settings, Matrix          : Default (H.263)\nCodec ID                         : XVID\nCodec ID/Hint                    : XviD\nDuration                         : 1h 26mn\nBit rate                         : 1 748 Kbps\nWidth                            : 720 pixels\nHeight                           : 400 pixels\nDisplay aspect ratio             : 16:9\nFrame rate                       : 25.000 fps\nColor space                      : YUV\nChroma subsampling               : 4:2:0\nBit depth                        : 8 bits\nScan type                        : Progressive\nCompression mode                 : Lossy\nBits/(Pixel*Frame)               : 0.243\nStream size                      : 1.06 GiB (93%)\n\nAudio\nID                               : 1\nFormat                           : AC-3\nFormat/Info                      : Audio Coding 3\nMode extension                   : CM (complete main)\nCodec ID                         : 2000\nDuration                         : 1h 26mn\nBit rate mode                    : Constant\nBit rate                         : 128 Kbps\nChannel(s)                       : 6 channels\nChannel positions                : Front: L C R, Side: L R, LFE\nSampling rate                    : 48.0 KHz\nBit depth                        : 16 bits\nCompression mode                 : Lossy\nStream size                      : 79.6 MiB (7%)\nAlignment                        : Aligned on interleaves\nInterleave, duration             : 32 ms (0.80 video frame)\n\n\nScreens:\n\n[img]http://i.imgur.com/7sGD5.png[/img]\n[img]http://i.imgur.com/H1d6h.png[/img]\n[img]http://i.imgur.com/Ru9sx.png[/img]\n[img]http://i.imgur.com/Okuj2.png[/img]\n\nGreetz\nThe Select Few .... YOU Know Who YOU Are ","torrent":{"xt":"urn:btih:46ce50da9cdbc7b757b5a0b451565d4202f8840e","amp;dn":"On+The+Inside+2011+DvDRiP+XviD+AC3+-+VISUALiSE","amp;tr":["udp%3A%2F%2Ftracker.openbittorrent.com%3A80","udp%3A%2F%2Fopen.demonii.com%3A1337","udp%3A%2F%2Ftracker.coppersurfer.tk%3A6969","udp%3A%2F%2Fexodus.desync.com%3A6969"],"infoHash":"46ce50da9cdbc7b757b5a0b451565d4202f8840e","infoHashBuffer":{"type":"Buffer","data":[70,206,80,218,156,219,199,183,87,181,160,180,81,86,93,66,2,248,132,14]},"announce":[],"urlList":[]}}